<svg width="180" height="180" viewBox="0 0 200 202" fill="none" xmlns="http://www.w3.org/2000/svg" id="skill-icon">
    <path d="M112.015 148.956C110.742 148.468 109.355 147.795 107.945 146.998L84.3619 180.428L82.6848 158.529H70.1525L68.473 180.432L44.8903 
    146.998C43.4396 147.832 42.0398 148.514 40.8175 148.956C28.4711 153.414 -1.86757 166.237 0.0904865 190.255C0.560767 196.019 31.4636 202 
    76.4172 202C121.369 202 152.275 196.019 152.746 190.255C154.704 166.213 124.286 153.662 112.015 148.956Z" class="icon-fill"/>
    <path d="M48.572 99.3595C50.2883 109.334 53.1735 118.133 56.9756 122.467C56.9756 127.665 56.9756 131.458 56.9756 134.493C56.9756 134.798 
    56.9235 135.119 56.8367 135.45L70.1525 142.027V151.673H82.6848V142.024L95.9923 135.454C95.9091 135.123 95.8586 134.801 95.8586 
    134.494C95.8586 131.458 95.8586 127.665 95.8586 122.468C99.6606 118.134 102.546 109.334 104.262 99.3599C108.267 97.894 110.554 95.5477 
    113.412 85.2827C116.454 74.348 108.838 74.7195 108.838 74.7195C114.998 53.8107 106.89 34.1604 93.3099 35.6028C83.9429 18.7977 52.573 
    39.4418 42.7397 38.0026C42.7397 43.7658 45.0797 48.0871 45.0797 48.0871C41.663 54.7409 42.9812 68.0086 43.9442 74.7195C43.3863 74.7093 
    36.5002 74.783 39.4209 85.2827C42.2797 95.5473 44.5676 97.8936 48.572 99.3595Z" class="icon-fill"/>
    <path d="M198.72 22.462C195.564 15.7111 190.382 10.1117 183.972 6.1853C177.556 2.26259 169.893 0.00647379 161.665 0C150.711 0.00647379 
    140.731 4.01294 133.394 10.6502C129.727 13.9704 126.717 17.9599 124.619 22.462C122.518 26.9569 121.338 31.9672 121.338 37.2158C121.335 
    43.9032 123.262 50.1957 126.561 55.5544C129.38 60.1362 133.191 64.0557 137.687 67.1215L130.917 84.4655L135.806 83.8465C152.696 81.6806 
    168.865 75.1975 176.544 71.7939C183.839 69.1231 190.137 64.5574 194.67 58.6266C199.232 52.6554 202.005 45.2348 202 37.2154C202.005 31.9676 
    200.818 26.9573 198.72 22.462ZM190.43 54.3794C186.635 59.3566 181.16 63.3796 174.678 65.7158L174.59 65.7425L174.502 65.783C167.857 68.7415 
    154.416 74.1136 140.128 76.6642L144.971 64.2734L142.594 62.8779C137.796 60.0667 133.868 56.2374 131.164 51.8429C128.457 47.4347 126.972 
    42.4879 126.968 37.2162C126.968 33.0762 127.886 29.143 129.583 25.5015C132.124 20.0493 136.457 15.2798 142.018 11.8758C147.581 8.47217 
    154.353 6.45032 161.665 6.45356C171.43 6.45032 180.207 10.0481 186.452 15.7082C189.572 18.5365 192.059 21.8668 193.753 25.5015C195.448 
    29.143 196.367 33.0758 196.37 37.2162C196.367 43.5213 194.232 49.3922 190.43 54.3794Z" class="icon-fill"/>
    <path d="M145.761 33.1089C143.343 33.1089 141.383 35.3581 141.383 38.1224C141.383 40.8936 143.343 43.1396 145.761 43.1396C148.18 43.1396 
    150.142 40.8936 150.142 38.1224C150.142 35.3581 148.179 33.1089 145.761 33.1089Z" class="icon-fill"/>
    <path d="M162.655 33.1089C160.235 33.1089 158.273 35.3581 158.273 38.1224C158.273 40.8936 160.236 43.1396 162.655 43.1396C165.074 43.1396 
    167.035 40.8936 167.035 38.1224C167.035 35.3581 165.074 33.1089 162.655 33.1089Z" class="icon-fill"/>
    <path d="M179.544 33.1089C177.126 33.1089 175.164 35.3581 175.164 38.1224C175.164 40.8936 177.126 43.1396 179.544 43.1396C181.966 43.1396 
    183.927 40.8936 183.927 38.1224C183.928 35.3581 181.966 33.1089 179.544 33.1089Z" class="icon-fill"/>
</svg>