<svg width="300" height="170" viewBox="0 0 336 182" fill="none" xmlns="http://www.w3.org/2000/svg" class="skill-icon">
    <g transform="translate(0 -8)">
        <path d="M67.4788 116.888C59.3938 116.888 51.7933 114.627 46.0768 110.523C40.3572 106.417 37.207 100.959 37.207 95.154V68.5835C37.207
        67.8709 37.6013 67.1875 38.3032 66.6835C39.0051 66.1796 39.957 65.8965 40.9496 65.8965C41.9421 65.8965 42.8941 66.1796 43.5959
        66.6835C44.2978 67.1875 44.6921 67.8709 44.6921 68.5835V95.154C44.6921 99.5234 47.0638 103.632 51.3698 106.723C55.6722 109.813 61.3934
        111.514 67.4788 111.514C80.043 111.514 90.2654 104.175 90.2654 95.154V68.5835C90.2654 67.8709 90.6597 67.1875 91.3616 66.6835C92.0635
        66.1796 93.0154 65.8965 94.008 65.8965C95.0006 65.8965 95.9525 66.1796 96.6543 66.6835C97.3562 67.1875 97.7505 67.8709 97.7505
        68.5835V95.154C97.7505 107.138 84.1705 116.888 67.4788 116.888ZM117.404 116.888C116.412 116.888 115.46 116.605 114.758 116.101C114.056
        115.597 113.662 114.914 113.662 114.201V68.5835C113.662 68.2307 113.758 67.8813 113.946 67.5553C114.135 67.2293 114.41 66.9331 114.758
        66.6835C115.105 66.434 115.518 66.2361 115.972 66.1011C116.426 65.966 116.913 65.8965 117.404 65.8965C117.896 65.8965 118.382 65.966
        118.836 66.1011C119.29 66.2361 119.703 66.434 120.051 66.6835C120.398 66.9331 120.674 67.2293 120.862 67.5553C121.05 67.8813 121.147
        68.2307 121.147 68.5835V114.201C121.147 114.914 120.752 115.597 120.051 116.101C119.349 116.605 118.397 116.888 117.404 116.888Z"
        class="icon-fill"/>
        <path d="M78.9968 182C78.2153 182 77.4475 181.793 76.7707 181.4L2.22616 138.136C1.54929 137.744 0.987222 137.178 0.596451 136.498C0.205681
        135.818 -2.73406e-05 135.046 7.25976e-09 134.26V47.7394C-4.46201e-05 46.9538 0.205663 46.1821 0.59644 45.5018C0.987218 44.8214 1.54929
        44.2565 2.22616 43.8638L76.7707 0.59988C77.4474 0.206898 78.2152 0 78.9968 0C79.7784 0 80.5462 0.206898 81.223 0.59988L155.774
        43.8638C156.451 44.2565 157.013 44.8214 157.404 45.5018C157.794 46.1821 158 46.9538 158 47.7394V134.261C158 135.046 157.794 135.818
        157.404 136.499C157.013 137.179 156.451 137.744 155.774 138.137L81.223 181.401C80.546 181.793 79.7783 182 78.9968 182ZM8.90463
        131.677L78.9968 172.357L149.095 131.677V50.323L78.9968 9.64329L8.90463 50.323V131.677Z" class="icon-fill"/>
    </g>

    <g transform="translate(170 0)">
        <path d="M45 67V83C45 88.3336 48.12 99 60.6 99C73.08 99 76.2 88.3336 76.2 83V67M99.6 67L111.3 83M111.3 83L123 99M111.3 83L123 67M111.3 83L99.6 99"
        class="icon-stroke" stroke-linecap="round" stroke-linejoin="round" fill="none"/>
        <path d="M84 162C127.63 162 163 126.854 163 83.5C163 40.1456 127.63 5 84 5C40.3695 5 5 40.1456 5 83.5C5 126.854 40.3695 162 84 162Z"
        class="icon-stroke" stroke-linecap="round" stroke-linejoin="round" fill="none"/>
    </g>
</svg>
